<svg width="51" height="33" viewBox="0 0 51 33" fill="none" xmlns="http://www.w3.org/2000/svg">
<rect x="0.75" y="0.75" width="49.5" height="31.5" rx="5.25" fill="#FF7D10"/>
<rect x="0.75" y="0.75" width="49.5" height="31.5" rx="5.25" stroke="#BBBBBB" stroke-width="0.5"/>
<path fill-rule="evenodd" clip-rule="evenodd" d="M32.5245 16.0636C32.6402 16.1794 32.7051 16.3364 32.7051 16.5001C32.7051 16.6638 32.6402 16.8207 32.5245 16.9365L27.5835 21.8776C27.5269 21.9382 27.4588 21.9869 27.383 22.0207C27.3072 22.0544 27.2254 22.0726 27.1425 22.074C27.0596 22.0755 26.9772 22.0603 26.9003 22.0292C26.8234 21.9981 26.7535 21.9519 26.6949 21.8932C26.6362 21.8346 26.59 21.7647 26.5589 21.6878C26.5279 21.6109 26.5126 21.5285 26.5141 21.4456C26.5156 21.3627 26.5337 21.2809 26.5675 21.2051C26.6012 21.1294 26.6499 21.0612 26.7106 21.0047L30.5975 17.1177H18.912C18.7482 17.1177 18.5911 17.0526 18.4753 16.9368C18.3594 16.821 18.2944 16.6639 18.2944 16.5001C18.2944 16.3363 18.3594 16.1792 18.4753 16.0634C18.5911 15.9475 18.7482 15.8825 18.912 15.8825L30.5975 15.8825L26.7106 11.9955C26.6499 11.939 26.6012 11.8708 26.5675 11.795C26.5337 11.7193 26.5156 11.6375 26.5141 11.5545C26.5126 11.4716 26.5279 11.3892 26.5589 11.3123C26.59 11.2354 26.6362 11.1656 26.6949 11.1069C26.7535 11.0483 26.8234 11.002 26.9003 10.971C26.9772 10.9399 27.0596 10.9247 27.1425 10.9261C27.2254 10.9276 27.3072 10.9457 27.383 10.9795C27.4588 11.0133 27.5269 11.0619 27.5835 11.1226L32.5245 16.0636Z" fill="black"/>
</svg>
